<mxfile host="app.diagrams.net" modified="2023-05-16T01:21:38.532Z" agent="Mozilla/5.0 (Macintosh; Intel Mac OS X 10_15_7) AppleWebKit/537.36 (KHTML, like Gecko) Chrome/111.0.0.0 Safari/537.36" version="21.2.9" etag="cQbwFRCDyyUJu44yWbnv" type="github">
  <diagram name="第 1 页" id="qv_Yb1zar3xZYrGLwf0X">
    <mxGraphModel>
      <root>
        <mxCell id="0" />
        <mxCell id="1" parent="0" />
      </root>
    </mxGraphModel>
  </diagram>
</mxfile>
